<svg xmlns="http://www.w3.org/2000/svg" xmlns:xlink="http://www.w3.org/1999/xlink" width="500" zoomAndPan="magnify" viewBox="0 0 375 374.999991" height="500" preserveAspectRatio="xMidYMid meet" version="1.0"><rect x="-37.5" width="450" fill="#ffffff" y="-37.499999" height="449.999989" fill-opacity="1"/><rect x="-37.5" width="450" fill="#ffffff" y="-37.499999" height="449.999989" fill-opacity="1"/><rect x="-37.5" width="450" fill="#ffffff" y="-37.499999" height="449.999989" fill-opacity="1"/><path fill="#65a6eb" d="M 310.859375 204.847656 C 301.269531 268.339844 242.03125 312.035156 178.539062 302.449219 C 115.046875 292.859375 71.351562 233.617188 80.9375 170.128906 C 90.527344 106.636719 149.769531 62.941406 213.257812 72.527344 C 276.75 82.117188 320.445312 141.359375 310.859375 204.847656 Z M 310.859375 204.847656 " fill-opacity="1" fill-rule="nonzero"/><path stroke-linecap="round" transform="matrix(0.277778, 0, 0, 0.277778, 147.895836, 212.293037)" fill="none" stroke-linejoin="round" d="M 187.054693 270.309148 C 164.723441 271.16696 141.99844 269.943523 119.090625 266.484148 C -77.418764 236.81227 -212.643773 53.465382 -182.971896 -143.029944 C -175.968771 -189.408073 -160.401582 -232.383076 -138.126581 -270.576829 " stroke="#fbd75a" stroke-width="16.447" stroke-opacity="1" stroke-miterlimit="4"/><path stroke-linecap="round" transform="matrix(0.277778, 0, 0, 0.277778, 273.865239, 185.424437)" fill="none" stroke-linejoin="round" d="M -79.192992 -290.793618 C 32.111703 -215.474862 96.517958 -80.587353 75.114831 61.162658 C 60.82733 155.761102 10.919514 236.15642 -58.914866 290.789237 " stroke="#fbd75a" stroke-width="16.447" stroke-opacity="1" stroke-miterlimit="4"/><path fill="#ffffff" d="M 281.417969 199.796875 C 274.332031 246.734375 230.53125 279.042969 183.589844 271.953125 C 136.652344 264.867188 104.34375 221.066406 111.433594 174.125 C 118.523438 127.183594 162.320312 94.878906 209.261719 101.96875 C 256.203125 109.054688 288.507812 152.855469 281.417969 199.796875 Z M 281.417969 199.796875 " fill-opacity="1" fill-rule="nonzero"/><path fill="#65a6eb" d="M 249.941406 228.726562 C 249.941406 228.726562 201.917969 234.074219 191.574219 232.757812 C 181.230469 231.441406 179.527344 229.046875 181.625 214.984375 C 183.722656 200.921875 181.722656 176.226562 177.449219 171.21875 C 173.175781 166.210938 181.273438 159.8125 190.390625 155.882812 C 199.503906 151.957031 233.539062 146.894531 250.796875 176.042969 C 268.058594 205.191406 260.210938 227.640625 249.941406 228.726562 Z M 249.941406 228.726562 " fill-opacity="1" fill-rule="nonzero"/><path stroke-linecap="round" transform="matrix(0.277778, 0, 0, 0.277778, 221.097777, 204.511115)" fill="none" stroke-linejoin="round" d="M 34.38238 92.983432 C 34.38238 92.983432 -69.792628 111.967808 -83.306691 49.966241 C -115.594194 -146.290023 66.346444 -110.135333 83.235508 -38.613453 C 96.299572 8.088113 75.88082 37.956865 31.527692 36.564678 C 14.948003 36.91624 -1.730123 36.80374 -10.462936 21.067802 C -22.261374 -0.208762 -5.414498 -21.977514 15.412066 -21.133764 C 30.501129 -20.515014 45.01363 -7.183763 39.346442 8.327176 " stroke="#f47769" stroke-width="6.534" stroke-opacity="1" stroke-miterlimit="4"/><path fill="#fcd7d7" d="M 147.871094 204.992188 C 147.871094 204.992188 141.964844 217.664062 140.953125 226.480469 C 138.917969 244.246094 150.105469 253.136719 183.753906 251.878906 C 217.402344 250.621094 246.332031 249.398438 253.421875 242.863281 C 260.511719 236.324219 258.308594 225.910156 247.535156 226.261719 C 236.757812 226.609375 224.128906 230.9375 206.539062 231.011719 C 188.949219 231.085938 183.808594 233.828125 183.835938 220.179688 C 183.867188 206.53125 189.761719 175.535156 181.605469 164.28125 C 174.105469 153.925781 160.433594 146.570312 144.804688 156.433594 C 129.179688 166.300781 121.769531 199.300781 147.871094 204.992188 Z M 147.871094 204.992188 " fill-opacity="1" fill-rule="nonzero"/><path fill="#f4abab" d="M 177.652344 219.035156 C 186.792969 219.4375 187.621094 217.136719 187.570312 212.492188 C 187.519531 207.449219 185.792969 205.550781 179.621094 205.753906 C 175.644531 205.886719 179.117188 199.679688 175.320312 199.523438 C 173.113281 199.433594 174.257812 205.257812 172.628906 206.109375 C 169.640625 207.664062 168.054688 208.5 167.929688 212.429688 C 167.769531 217.144531 173.378906 218.855469 177.652344 219.035156 Z M 177.652344 219.035156 " fill-opacity="1" fill-rule="nonzero"/><path stroke-linecap="round" transform="matrix(0.277778, 0, 0, 0.277778, 151.941117, 194.537493)" fill="none" stroke-linejoin="round" d="M -56.023962 -21.903726 C -56.023962 -21.903726 -53.8724 20.424402 0.0151041 21.87284 C 49.683858 23.22284 56.026046 -19.259976 56.026046 -19.259976 " stroke="#f47769" stroke-width="6.388" stroke-opacity="1" stroke-miterlimit="4"/><path stroke-linecap="butt" transform="matrix(0.277778, 0, 0, 0.277778, 164.185556, 170.540262)" fill-opacity="1" fill="#ffffff" fill-rule="nonzero" stroke-linejoin="miter" d="M 38.974188 1.584746 C 38.102313 23.100372 19.933562 39.848811 -1.582065 38.976936 C -23.111754 38.090998 -39.84613 19.93631 -38.974255 -1.579317 C -38.10238 -23.109006 -19.933628 -39.843382 1.581998 -38.971507 C 23.111687 -38.099632 39.846063 -19.944943 38.974188 1.584746 Z M 38.974188 1.584746 " stroke="#f47769" stroke-width="4.895" stroke-opacity="1" stroke-miterlimit="10"/><path fill="#f47769" d="M 172.058594 172.484375 C 171.859375 177.414062 167.703125 181.246094 162.773438 181.046875 C 157.84375 180.84375 154.011719 176.6875 154.210938 171.757812 C 154.414062 166.828125 158.570312 162.996094 163.5 163.195312 C 168.425781 163.398438 172.261719 167.554688 172.058594 172.484375 Z M 172.058594 172.484375 " fill-opacity="1" fill-rule="nonzero"/><path fill="#ffffff" d="M 169.3125 168.796875 C 169.234375 170.769531 167.570312 172.300781 165.597656 172.222656 C 163.625 172.140625 162.089844 170.476562 162.171875 168.503906 C 162.25 166.535156 163.914062 165 165.886719 165.082031 C 167.859375 165.160156 169.390625 166.824219 169.3125 168.796875 Z M 169.3125 168.796875 " fill-opacity="1" fill-rule="nonzero"/><path stroke-linecap="butt" transform="matrix(0.277778, 0, 0, 0.277778, 140.481382, 169.577216)" fill-opacity="1" fill="#ffffff" fill-rule="nonzero" stroke-linejoin="miter" d="M 38.977966 1.578272 C 38.092029 23.107961 19.93734 39.842338 -1.578287 38.970462 C -23.107976 38.098587 -39.842352 19.943899 -38.970477 -1.58579 C -38.098602 -23.101417 -19.943913 -39.849856 1.585776 -38.977981 C 9.123277 -38.668606 16.084215 -36.235793 21.892028 -32.28423 C 32.677966 -24.957667 39.540466 -12.399854 38.977966 1.578272 Z M 38.977966 1.578272 " stroke="#f47769" stroke-width="4.895" stroke-opacity="1" stroke-miterlimit="10"/><path fill="#f47769" d="M 148.722656 171.535156 C 148.523438 176.464844 144.363281 180.296875 139.433594 180.097656 C 134.507812 179.898438 130.671875 175.738281 130.875 170.808594 C 131.074219 165.882812 135.230469 162.046875 140.160156 162.25 C 145.089844 162.449219 148.921875 166.605469 148.722656 171.535156 Z M 148.722656 171.535156 " fill-opacity="1" fill-rule="nonzero"/><path fill="#ffffff" d="M 145.972656 167.847656 C 145.894531 169.820312 144.230469 171.351562 142.257812 171.273438 C 140.285156 171.191406 138.753906 169.53125 138.832031 167.558594 C 138.914062 165.585938 140.578125 164.050781 142.546875 164.132812 C 144.519531 164.210938 146.054688 165.875 145.972656 167.847656 Z M 145.972656 167.847656 " fill-opacity="1" fill-rule="nonzero"/><path stroke-linecap="round" transform="matrix(0.300948, 0, 0, 0.300948, 202.424156, 114.103608)" fill-opacity="1" fill="#fbd75a" fill-rule="nonzero" stroke-linejoin="round" d="M 3.237373 -18.983277 C 3.237373 -18.983277 3.237373 -20.047622 3.237373 -20.047622 C 3.237373 -20.047622 0.771209 -12.311655 -3.551067 -8.430692 C -8.184859 -4.290133 -13.947895 -1.655232 -13.389763 -1.914828 C -4.096219 -0.564928 1.809594 11.467356 1.627877 20.04701 C 3.769545 9.14397 9.130206 -0.564928 13.426523 -0.214473 C 8.598034 -2.888314 2.160049 -10.754078 3.237373 -18.983277 Z M 3.237373 -18.983277 " stroke="#fbd75a" stroke-width="2.267" stroke-opacity="1" stroke-miterlimit="4"/><path stroke-linecap="round" transform="matrix(0.101811, 0, 0, 0.101811, 269.388328, 172.751941)" fill-opacity="1" fill="#fbd75a" fill-rule="nonzero" stroke-linejoin="round" d="M 4.549935 -26.761237 C 4.549935 -26.761237 4.549935 -28.257572 4.549935 -28.257572 C 4.549935 -28.257572 1.096856 -17.36119 -5.003583 -11.874632 C -11.526065 -6.042765 -19.659983 -2.321114 -18.854265 -2.704789 C -5.770934 -0.786412 2.554823 16.172041 2.28625 28.257817 C 5.317286 12.9108 12.875691 -0.786412 18.937763 -0.287634 C 12.108341 -4.086021 3.053601 -15.17424 4.549935 -26.761237 Z M 4.549935 -26.761237 " stroke="#fbd75a" stroke-width="3.195" stroke-opacity="1" stroke-miterlimit="4"/><path stroke-linecap="round" transform="matrix(0.333072, 0, 0, 0.333072, 225.337768, 131.618605)" fill-opacity="1" fill="#fbd75a" fill-rule="nonzero" stroke-linejoin="round" d="M 6.937446 -40.700217 C 6.937446 -40.700217 6.937446 -42.998893 6.937446 -42.998893 C 6.937446 -42.998893 1.659872 -26.403855 -7.628659 -18.088743 C -17.53877 -9.210691 -29.91175 -3.534366 -28.703772 -4.109036 C -8.777997 -1.223962 3.876453 24.600968 3.489431 43.00211 C 8.098512 19.616592 19.591896 -1.223962 28.786603 -0.449918 C 18.442558 -6.208337 4.638769 -23.073119 6.937446 -40.700217 Z M 6.937446 -40.700217 " stroke="#fbd75a" stroke-width="4.861" stroke-opacity="1" stroke-miterlimit="4"/><path stroke-linecap="round" transform="matrix(0.229765, 0, 0, 0.229765, 255.896121, 144.496104)" fill-opacity="1" fill="#fbd75a" fill-rule="nonzero" stroke-linejoin="round" d="M 3.614312 -21.149403 C 3.614312 -21.149403 3.614312 -22.339479 3.614312 -22.339479 C 3.614312 -22.339479 0.860135 -13.719926 -3.968175 -9.401649 C -9.119505 -4.794353 -15.545918 -1.836163 -14.916877 -2.125182 C -4.563213 -0.629085 2.01621 12.784776 1.812196 22.339389 C 4.20935 10.20061 10.176733 -0.629085 14.95404 -0.23806 C 9.581695 -3.230252 2.407235 -11.985814 3.614312 -21.149403 Z M 3.614312 -21.149403 " stroke="#fbd75a" stroke-width="2.526" stroke-opacity="1" stroke-miterlimit="4"/><path stroke-linecap="round" transform="matrix(0.241999, 0, 0, 0.241999, 271.004166, 197.467751)" fill-opacity="1" fill="#fbd75a" fill-rule="nonzero" stroke-linejoin="round" d="M 2.420165 -14.152044 C 2.420165 -14.152044 2.420165 -14.942982 2.420165 -14.942982 C 2.420165 -14.942982 0.580024 -9.180435 -2.648293 -6.291091 C -6.102593 -3.208048 -10.396255 -1.222633 -9.976574 -1.432473 C -3.051833 -0.431695 1.35482 8.559169 1.209546 14.951238 C 2.807563 6.815878 6.810677 -0.431695 10.006711 -0.157288 C 6.407137 -2.158845 1.613086 -8.018241 2.420165 -14.152044 Z M 2.420165 -14.152044 " stroke="#fbd75a" stroke-width="1.69" stroke-opacity="1" stroke-miterlimit="4"/><path stroke-linecap="round" transform="matrix(0.329114, 0, 0, 0.329114, 160.012758, 127.376651)" fill-opacity="1" fill="#fbd75a" fill-rule="nonzero" stroke-linejoin="round" d="M 3.593141 -21.108046 C 3.593141 -21.108046 3.593141 -22.294943 3.593141 -22.294943 C 3.593141 -22.294943 0.863277 -13.68994 -3.955525 -9.381503 C -9.094789 -4.776342 -15.515903 -1.832838 -14.886847 -2.129562 C -4.548974 -0.634071 2.014567 12.754128 1.812795 22.29678 C 4.198458 10.166692 10.156681 -0.634071 14.928008 -0.230526 C 9.563233 -3.221507 2.406243 -11.95707 3.593141 -21.108046 Z M 3.593141 -21.108046 " stroke="#fbd75a" stroke-width="2.52" stroke-opacity="1" stroke-miterlimit="4"/><path stroke-linecap="round" transform="matrix(0.156657, 0, 0, 0.156657, 143.122495, 145.415263)" fill-opacity="1" fill="#fbd75a" fill-rule="nonzero" stroke-linejoin="round" d="M 3.082993 -18.010727 C 3.082993 -18.010727 3.082993 -19.033062 3.082993 -19.033062 C 3.082993 -19.033062 0.739104 -11.67724 -3.375169 -8.011796 C -7.763727 -4.072068 -13.249425 -1.553634 -12.700855 -1.827919 C -3.873869 -0.5313 1.711569 10.888926 1.537024 19.042667 C 3.581693 8.694646 8.668431 -0.5313 12.732834 -0.207145 C 8.169731 -2.750514 2.060659 -10.206075 3.082993 -18.010727 Z M 3.082993 -18.010727 " stroke="#fbd75a" stroke-width="2.152" stroke-opacity="1" stroke-miterlimit="4"/><path fill="#fcd7d7" d="M 242.128906 287.964844 C 242.128906 287.964844 236.023438 274.859375 236.023438 274.859375 C 236.023438 274.859375 231.945312 276.757812 231.945312 276.757812 C 231.945312 276.757812 230.429688 273.503906 230.429688 273.503906 C 230.429688 273.503906 241.863281 268.179688 241.863281 268.179688 C 241.863281 268.179688 243.378906 271.433594 243.378906 271.433594 C 243.378906 271.433594 239.300781 273.332031 239.300781 273.332031 C 239.300781 273.332031 245.402344 286.4375 245.402344 286.4375 C 245.402344 286.4375 242.128906 287.964844 242.128906 287.964844 Z M 242.128906 287.964844 " fill-opacity="1" fill-rule="nonzero"/><path fill="#fcd7d7" d="M 221.863281 295.449219 C 221.863281 295.449219 216.859375 278.082031 216.859375 278.082031 C 216.859375 278.082031 220.332031 277.082031 220.332031 277.082031 C 220.332031 277.082031 225.335938 294.449219 225.335938 294.449219 C 225.335938 294.449219 221.863281 295.449219 221.863281 295.449219 Z M 221.863281 295.449219 " fill-opacity="1" fill-rule="nonzero"/><path fill="#fcd7d7" d="M 228.511719 101.902344 C 228.511719 101.902344 222.804688 99.726562 222.804688 99.726562 C 222.804688 99.726562 230.105469 80.578125 230.105469 80.578125 C 230.105469 80.578125 235.8125 82.75 235.8125 82.75 C 248.5625 87.613281 241.261719 106.761719 228.511719 101.902344 Z M 232.476562 85.867188 C 232.476562 85.867188 228.097656 97.359375 228.097656 97.359375 C 228.097656 97.359375 229.972656 98.074219 229.972656 98.074219 C 237.417969 100.910156 241.796875 89.421875 234.351562 86.582031 C 234.351562 86.582031 232.476562 85.867188 232.476562 85.867188 Z M 232.476562 85.867188 " fill-opacity="1" fill-rule="nonzero"/><path fill="#fcd7d7" d="M 205.933594 95.660156 C 205.933594 95.660156 209.90625 75.554688 209.90625 75.554688 C 209.90625 75.554688 219.972656 77.542969 219.972656 77.542969 C 219.972656 77.542969 219.179688 81.566406 219.179688 81.566406 C 219.179688 81.566406 213.132812 80.371094 213.132812 80.371094 C 213.132812 80.371094 212.339844 84.390625 212.339844 84.390625 C 212.339844 84.390625 217.625 85.4375 217.625 85.4375 C 217.625 85.4375 216.832031 89.457031 216.832031 89.457031 C 216.832031 89.457031 211.542969 88.414062 211.542969 88.414062 C 211.542969 88.414062 210.75 92.433594 210.75 92.433594 C 210.75 92.433594 217.132812 93.695312 217.132812 93.695312 C 217.132812 93.695312 216.339844 97.71875 216.339844 97.71875 C 216.339844 97.71875 205.933594 95.660156 205.933594 95.660156 Z M 205.933594 95.660156 " fill-opacity="1" fill-rule="nonzero"/><path fill="#fcd7d7" d="M 193.351562 74.539062 C 193.351562 74.539062 193.351562 90.933594 193.351562 90.933594 C 193.351562 90.933594 199.855469 90.933594 199.855469 90.933594 C 199.855469 90.933594 199.855469 95.03125 199.855469 95.03125 C 199.855469 95.03125 189.25 95.03125 189.25 95.03125 C 189.25 95.03125 189.25 74.539062 189.25 74.539062 C 189.25 74.539062 193.351562 74.539062 193.351562 74.539062 Z M 193.351562 74.539062 " fill-opacity="1" fill-rule="nonzero"/><path fill="#fcd7d7" d="M 178.152344 97.082031 C 178.152344 97.082031 174.804688 76.859375 174.804688 76.859375 C 174.804688 76.859375 178.851562 76.191406 178.851562 76.191406 C 178.851562 76.191406 182.199219 96.410156 182.199219 96.410156 C 182.199219 96.410156 178.152344 97.082031 178.152344 97.082031 Z M 178.152344 97.082031 " fill-opacity="1" fill-rule="nonzero"/><path fill="#fcd7d7" d="M 156.902344 81.734375 C 156.902344 81.734375 157.304688 81.582031 157.304688 81.582031 C 157.304688 81.582031 172.796875 98.484375 172.796875 98.484375 C 172.796875 98.484375 168.472656 100.09375 168.472656 100.09375 C 168.472656 100.09375 166.921875 98.3125 166.921875 98.3125 C 166.921875 98.3125 160.554688 100.683594 160.554688 100.683594 C 160.554688 100.683594 160.574219 103.03125 160.574219 103.03125 C 160.574219 103.03125 156.21875 104.648438 156.21875 104.648438 C 156.21875 104.648438 156.902344 81.734375 156.902344 81.734375 Z M 164.160156 95.242188 C 164.160156 95.242188 160.554688 90.894531 160.554688 90.894531 C 160.554688 90.894531 160.613281 96.5625 160.613281 96.5625 C 160.613281 96.5625 164.160156 95.242188 164.160156 95.242188 Z M 164.160156 95.242188 " fill-opacity="1" fill-rule="nonzero"/><path fill="#fcd7d7" d="M 141.875 113.917969 C 141.875 113.917969 138.496094 116.238281 138.496094 116.238281 C 138.496094 116.238281 126.644531 98.992188 126.644531 98.992188 C 126.644531 98.992188 127.542969 98.375 127.542969 98.375 C 127.542969 98.375 142.890625 102.4375 142.890625 102.4375 C 142.890625 102.4375 136.332031 92.890625 136.332031 92.890625 C 136.332031 92.890625 139.734375 90.554688 139.734375 90.554688 C 139.734375 90.554688 151.570312 107.777344 151.570312 107.777344 C 151.570312 107.777344 150.671875 108.394531 150.671875 108.394531 C 150.671875 108.394531 135.5625 104.726562 135.5625 104.726562 C 135.5625 104.726562 141.875 113.917969 141.875 113.917969 Z M 141.875 113.917969 " fill-opacity="1" fill-rule="nonzero"/><path fill="#fcd7d7" d="M 120.667969 126.746094 C 123.492188 126.1875 125.289062 124.375 125.878906 123.628906 C 126.644531 122.695312 126.730469 121.355469 125.839844 120.667969 C 124.929688 119.921875 123.941406 120.210938 122.863281 120.769531 C 119.800781 122.289062 116.640625 123.246094 114.144531 120.878906 C 111.648438 118.511719 111.375 114.972656 113.597656 112.378906 C 114.285156 111.566406 115.25 110.550781 117.730469 109.265625 C 117.730469 109.265625 120.246094 112.363281 120.246094 112.363281 C 118.023438 113.375 117.15625 114.332031 116.742188 114.808594 C 115.800781 115.929688 116.117188 117.136719 117.007812 117.863281 C 117.917969 118.570312 118.980469 118.195312 120.082031 117.617188 C 123.125 116.117188 126.347656 115.382812 128.71875 117.632812 C 131.195312 119.980469 131.472656 123.480469 128.972656 126.40625 C 128.246094 127.296875 126.386719 129.050781 123.433594 130.082031 C 123.433594 130.082031 120.667969 126.746094 120.667969 126.746094 Z M 120.667969 126.746094 " fill-opacity="1" fill-rule="nonzero"/></svg>